<mxfile host="app.diagrams.net" agent="Mozilla/5.0 (Macintosh; Intel Mac OS X 10_15_7) AppleWebKit/537.36 (KHTML, like Gecko) Chrome/139.0.0.0 Safari/537.36" version="28.1.1">
  <diagram name="Sayfa -1" id="qBZGZ78awBPly-WEqRRM">
    <mxGraphModel grid="1" page="1" gridSize="10" guides="1" tooltips="1" connect="1" arrows="1" fold="1" pageScale="1" pageWidth="827" pageHeight="1169" math="0" shadow="0">
      <root>
        <mxCell id="0" />
        <mxCell id="1" parent="0" />
        <mxCell id="D_A9N1xjcpp544TdKz-Q-1" value="Şemsiye Almalımıyım" style="text;html=1;align=center;verticalAlign=middle;whiteSpace=wrap;rounded=0;fontSize=31;" vertex="1" parent="1">
          <mxGeometry x="214" y="50" width="400" height="70" as="geometry" />
        </mxCell>
        <mxCell id="D_A9N1xjcpp544TdKz-Q-5" style="edgeStyle=orthogonalEdgeStyle;rounded=0;orthogonalLoop=1;jettySize=auto;html=1;entryX=0.5;entryY=0;entryDx=0;entryDy=0;" edge="1" parent="1" source="D_A9N1xjcpp544TdKz-Q-2" target="D_A9N1xjcpp544TdKz-Q-4">
          <mxGeometry relative="1" as="geometry" />
        </mxCell>
        <mxCell id="D_A9N1xjcpp544TdKz-Q-2" value="Başla" style="ellipse;whiteSpace=wrap;html=1;" vertex="1" parent="1">
          <mxGeometry x="385" y="140" width="120" height="80" as="geometry" />
        </mxCell>
        <mxCell id="D_A9N1xjcpp544TdKz-Q-3" value="Son" style="ellipse;whiteSpace=wrap;html=1;" vertex="1" parent="1">
          <mxGeometry x="385" y="1045" width="120" height="80" as="geometry" />
        </mxCell>
        <mxCell id="D_A9N1xjcpp544TdKz-Q-7" style="edgeStyle=orthogonalEdgeStyle;rounded=0;orthogonalLoop=1;jettySize=auto;html=1;entryX=1;entryY=0.5;entryDx=0;entryDy=0;" edge="1" parent="1" source="D_A9N1xjcpp544TdKz-Q-4" target="D_A9N1xjcpp544TdKz-Q-6">
          <mxGeometry relative="1" as="geometry" />
        </mxCell>
        <mxCell id="D_A9N1xjcpp544TdKz-Q-17" style="edgeStyle=orthogonalEdgeStyle;rounded=0;orthogonalLoop=1;jettySize=auto;html=1;entryX=0.5;entryY=0;entryDx=0;entryDy=0;" edge="1" parent="1" source="D_A9N1xjcpp544TdKz-Q-4" target="D_A9N1xjcpp544TdKz-Q-13">
          <mxGeometry relative="1" as="geometry" />
        </mxCell>
        <mxCell id="D_A9N1xjcpp544TdKz-Q-4" value="Yağmur Yağıyor Mu?" style="rhombus;whiteSpace=wrap;html=1;fontSize=15;" vertex="1" parent="1">
          <mxGeometry x="350" y="315" width="200" height="170" as="geometry" />
        </mxCell>
        <mxCell id="D_A9N1xjcpp544TdKz-Q-10" style="edgeStyle=orthogonalEdgeStyle;rounded=0;orthogonalLoop=1;jettySize=auto;html=1;entryX=0.5;entryY=0;entryDx=0;entryDy=0;" edge="1" parent="1" source="D_A9N1xjcpp544TdKz-Q-6" target="D_A9N1xjcpp544TdKz-Q-9">
          <mxGeometry relative="1" as="geometry" />
        </mxCell>
        <mxCell id="D_A9N1xjcpp544TdKz-Q-6" value="Şemsiyeyi Yanına Alma" style="shape=document;whiteSpace=wrap;html=1;boundedLbl=1;fontSize=14;" vertex="1" parent="1">
          <mxGeometry x="60" y="360" width="170" height="80" as="geometry" />
        </mxCell>
        <mxCell id="D_A9N1xjcpp544TdKz-Q-8" value="Hayır" style="text;html=1;align=center;verticalAlign=middle;whiteSpace=wrap;rounded=0;" vertex="1" parent="1">
          <mxGeometry x="290" y="370" width="60" height="30" as="geometry" />
        </mxCell>
        <mxCell id="D_A9N1xjcpp544TdKz-Q-9" value="" style="shape=orEllipse;perimeter=ellipsePerimeter;whiteSpace=wrap;html=1;backgroundOutline=1;" vertex="1" parent="1">
          <mxGeometry x="100" y="1050" width="70" height="70" as="geometry" />
        </mxCell>
        <mxCell id="D_A9N1xjcpp544TdKz-Q-11" style="edgeStyle=orthogonalEdgeStyle;rounded=0;orthogonalLoop=1;jettySize=auto;html=1;entryX=0.083;entryY=0.438;entryDx=0;entryDy=0;entryPerimeter=0;" edge="1" parent="1" source="D_A9N1xjcpp544TdKz-Q-9" target="D_A9N1xjcpp544TdKz-Q-3">
          <mxGeometry relative="1" as="geometry" />
        </mxCell>
        <mxCell id="D_A9N1xjcpp544TdKz-Q-12" value="Evet" style="text;html=1;align=center;verticalAlign=middle;whiteSpace=wrap;rounded=0;" vertex="1" parent="1">
          <mxGeometry x="445" y="485" width="60" height="30" as="geometry" />
        </mxCell>
        <mxCell id="D_A9N1xjcpp544TdKz-Q-15" style="edgeStyle=orthogonalEdgeStyle;rounded=0;orthogonalLoop=1;jettySize=auto;html=1;entryX=0.5;entryY=1;entryDx=0;entryDy=0;" edge="1" parent="1" source="D_A9N1xjcpp544TdKz-Q-13" target="D_A9N1xjcpp544TdKz-Q-14">
          <mxGeometry relative="1" as="geometry" />
        </mxCell>
        <mxCell id="D_A9N1xjcpp544TdKz-Q-21" style="edgeStyle=orthogonalEdgeStyle;rounded=0;orthogonalLoop=1;jettySize=auto;html=1;entryX=0.5;entryY=0;entryDx=0;entryDy=0;" edge="1" parent="1" source="D_A9N1xjcpp544TdKz-Q-13" target="D_A9N1xjcpp544TdKz-Q-20">
          <mxGeometry relative="1" as="geometry" />
        </mxCell>
        <mxCell id="D_A9N1xjcpp544TdKz-Q-13" value="Şemsiyeyi Buldun Mu" style="rhombus;whiteSpace=wrap;html=1;" vertex="1" parent="1">
          <mxGeometry x="370" y="570" width="160" height="140" as="geometry" />
        </mxCell>
        <mxCell id="D_A9N1xjcpp544TdKz-Q-16" style="edgeStyle=orthogonalEdgeStyle;rounded=0;orthogonalLoop=1;jettySize=auto;html=1;entryX=1;entryY=0.5;entryDx=0;entryDy=0;" edge="1" parent="1" source="D_A9N1xjcpp544TdKz-Q-14" target="D_A9N1xjcpp544TdKz-Q-4">
          <mxGeometry relative="1" as="geometry">
            <Array as="points">
              <mxPoint x="720" y="400" />
            </Array>
          </mxGeometry>
        </mxCell>
        <mxCell id="D_A9N1xjcpp544TdKz-Q-14" value="" style="shape=orEllipse;perimeter=ellipsePerimeter;whiteSpace=wrap;html=1;backgroundOutline=1;" vertex="1" parent="1">
          <mxGeometry x="680" y="505" width="80" height="80" as="geometry" />
        </mxCell>
        <mxCell id="D_A9N1xjcpp544TdKz-Q-18" value="Hayır" style="text;html=1;align=center;verticalAlign=middle;whiteSpace=wrap;rounded=0;" vertex="1" parent="1">
          <mxGeometry x="530" y="600" width="60" height="30" as="geometry" />
        </mxCell>
        <mxCell id="D_A9N1xjcpp544TdKz-Q-19" value="Evet" style="text;html=1;align=center;verticalAlign=middle;whiteSpace=wrap;rounded=0;" vertex="1" parent="1">
          <mxGeometry x="390" y="710" width="60" height="30" as="geometry" />
        </mxCell>
        <mxCell id="D_A9N1xjcpp544TdKz-Q-22" style="edgeStyle=orthogonalEdgeStyle;rounded=0;orthogonalLoop=1;jettySize=auto;html=1;entryX=0.5;entryY=0;entryDx=0;entryDy=0;" edge="1" parent="1" source="D_A9N1xjcpp544TdKz-Q-20" target="D_A9N1xjcpp544TdKz-Q-3">
          <mxGeometry relative="1" as="geometry" />
        </mxCell>
        <mxCell id="D_A9N1xjcpp544TdKz-Q-20" value="Şemsiyeyi Yanına Al" style="shape=document;whiteSpace=wrap;html=1;boundedLbl=1;" vertex="1" parent="1">
          <mxGeometry x="385" y="820" width="120" height="80" as="geometry" />
        </mxCell>
      </root>
    </mxGraphModel>
  </diagram>
</mxfile>
